# xmcd
#
# Track frame offsets:
#	150
#	17883
#	35168
#	57267
#	69617
#	95742
#	111930
#	127643
#	142675
#	155415
#	166079
#	225767
#	246811
#	264193
#
# Disc length: 3718 seconds
#
# Revision: 2
# Processed by: cddbd v1.4PL0 Copyright (c) Steve Scherf et al.
# Submitted via: audiograbber 1.81.02
#
DISCID=ab0e840e
DTITLE=Clemens Otte and Co - The Great R&R Show CD2
DYEAR=2001
DGENRE=Acoustic
TTITLE0=The Last Time
TTITLE1=Satisfaction
TTITLE2=Nights In White Satin
TTITLE3=Under The Boardwalk
TTITLE4=Out Of Time
TTITLE5=Let`s Spend The Night Together
TTITLE6=Lady Jane
TTITLE7=Ruby Tuesday
TTITLE8=Mother`s Little Helper
TTITLE9=Play With Fire
TTITLE10=Sympathy For The Devil
TTITLE11=Wonderful Tonite
TTITLE12=Loch In Der Tasche
TTITLE13=Wild Thing
EXTD=
EXTT0=
EXTT1=
EXTT2=
EXTT3=
EXTT4=
EXTT5=
EXTT6=
EXTT7=
EXTT8=
EXTT9=
EXTT10=
EXTT11=
EXTT12=
EXTT13=
PLAYORDER=
